<svg width="80" height="80" viewBox="0 0 80 80" fill="none" xmlns="http://www.w3.org/2000/svg">
<rect width="80" height="80" rx="40" fill="white" style="fill:white;fill-opacity:1;"/>
<path d="M52.5377 33.0419C52.2169 32.3923 51.765 31.8116 51.2088 31.3341L46.8755 27.5265C45.9131 26.6646 44.6847 26.1338 43.3799 26.016C43.2898 25.9947 43.1956 25.9947 43.1055 26.016H34.5255C33.5688 25.9767 32.6135 26.1222 31.7153 26.4439C30.8171 26.7657 29.994 27.2574 29.2937 27.8904C28.5934 28.5233 28.0299 29.2849 27.6362 30.1309C27.2424 30.9768 27.0261 31.8902 27 32.8179V47.2322C27.0517 48.6309 27.5348 49.9824 28.3871 51.1123C29.2394 52.2422 30.4216 53.0986 31.7811 53.5707C32.6652 53.8964 33.6099 54.0395 34.5544 53.9907H45.4744C46.4311 54.03 47.3864 53.8845 48.2845 53.5628C49.1827 53.241 50.0059 52.7493 50.7062 52.1163C51.4065 51.4834 51.97 50.7218 52.3637 49.8758C52.7575 49.0299 52.9737 48.1165 52.9999 47.1888V35.1963C53.0048 34.4541 52.8473 33.7193 52.5377 33.0405M45.8644 33.5864C45.6583 33.5883 45.4539 33.5505 45.2629 33.4754C45.072 33.4002 44.8983 33.2892 44.7519 33.1486C44.6055 33.008 44.4893 32.8407 44.41 32.6564C44.3307 32.472 44.2899 32.2743 44.2899 32.0746V28.3664C45.2433 28.5904 48.9555 32.286 49.7643 32.9019C50.0051 33.0979 50.2073 33.3265 50.371 33.5878L45.8644 33.5864Z" fill="black" style="fill:black;fill-opacity:1;"/>
</svg>
