<svg width="80" height="80" viewBox="0 0 80 80" fill="none" xmlns="http://www.w3.org/2000/svg">
<rect width="80" height="80" rx="40" fill="white" style="fill:white;fill-opacity:1;"/>
<path d="M35.8633 29.8498C36.7045 27.3883 40.1055 27.3138 41.1028 29.6262L41.1872 29.8512L42.3223 33.1707C42.5824 33.932 43.0028 34.6286 43.555 35.2136C44.1073 35.7986 44.7786 36.2584 45.5236 36.5619L45.8288 36.6759L49.1483 37.8096C51.6098 38.6507 51.6844 42.0518 49.3734 43.049L49.1483 43.1334L45.8288 44.2685C45.0673 44.5285 44.3704 44.9487 43.7851 45.501C43.1999 46.0533 42.7399 46.7246 42.4362 47.4698L42.3223 47.7736L41.1886 51.0945C40.3475 53.556 36.9464 53.6306 35.9506 51.3196L35.8633 51.0945L34.7297 47.7751C34.4697 47.0135 34.0494 46.3166 33.4971 45.7313C32.9449 45.1461 32.2735 44.6861 31.5283 44.3824L31.2245 44.2685L27.905 43.1348C25.4421 42.2937 25.3676 38.8926 27.68 37.8968L27.905 37.8096L31.2245 36.6759C31.9858 36.4157 32.6824 35.9954 33.2674 35.4431C33.8524 34.8909 34.3122 34.2196 34.6157 33.4745L34.7297 33.1707L35.8633 29.8498ZM49.7785 25C50.0416 25 50.2995 25.0738 50.5227 25.2131C50.746 25.3523 50.9258 25.5514 51.0416 25.7877L51.1091 25.9522L51.6014 27.3954L53.0459 27.8877C53.3096 27.9773 53.5408 28.1431 53.7101 28.3642C53.8795 28.5853 53.9794 28.8518 53.9971 29.1297C54.0149 29.4076 53.9498 29.6846 53.81 29.9255C53.6702 30.1664 53.462 30.3603 53.2119 30.4828L53.0459 30.5503L51.6028 31.0426L51.1105 32.4871C51.0207 32.7508 50.8547 32.9818 50.6335 33.151C50.4124 33.3202 50.1459 33.42 49.868 33.4376C49.59 33.4552 49.3131 33.3899 49.0723 33.25C48.8315 33.1101 48.6377 32.9019 48.5154 32.6517L48.4479 32.4871L47.9556 31.044L46.511 30.5517C46.2473 30.4621 46.0161 30.2962 45.8468 30.0751C45.6775 29.854 45.5776 29.5876 45.5598 29.3097C45.542 29.0317 45.6072 28.7548 45.7469 28.5139C45.8867 28.273 46.0949 28.079 46.345 27.9566L46.511 27.8891L47.9542 27.3968L48.4464 25.9522C48.5413 25.6743 48.7207 25.4331 48.9596 25.2623C49.1985 25.0916 49.4848 24.9998 49.7785 25Z" fill="black" style="fill:black;fill-opacity:1;"/>
</svg>
