<svg width="80" height="80" viewBox="0 0 80 80" fill="none" xmlns="http://www.w3.org/2000/svg">
<rect width="80" height="80" rx="40" fill="white" style="fill:white;fill-opacity:1;"/>
<g clip-path="url(#clip0_45_184)">
<path d="M51.0833 26H28.9167C28.1431 26 27.4013 26.3073 26.8543 26.8543C26.3073 27.4013 26 28.1431 26 28.9167V51.0833C26 51.4664 26.0754 51.8456 26.222 52.1995C26.3686 52.5534 26.5834 52.8749 26.8543 53.1457C27.1251 53.4166 27.4466 53.6314 27.8005 53.778C28.1544 53.9246 28.5336 54 28.9167 54H51.0833C51.4664 54 51.8456 53.9246 52.1995 53.778C52.5534 53.6314 52.8749 53.4166 53.1457 53.1457C53.4166 52.8749 53.6314 52.5534 53.778 52.1995C53.9246 51.8456 54 51.4664 54 51.0833V28.9167C54 28.5336 53.9246 28.1544 53.778 27.8005C53.6314 27.4466 53.4166 27.1251 53.1457 26.8543C52.8749 26.5834 52.5534 26.3686 52.1995 26.222C51.8456 26.0754 51.4664 26 51.0833 26ZM47.5833 37.0833H42.3333C42.0239 37.0833 41.7272 36.9604 41.5084 36.7416C41.2896 36.5228 41.1667 36.2261 41.1667 35.9167C41.1667 35.6072 41.2896 35.3105 41.5084 35.0917C41.7272 34.8729 42.0239 34.75 42.3333 34.75H47.5833C47.8928 34.75 48.1895 34.8729 48.4083 35.0917C48.6271 35.3105 48.75 35.6072 48.75 35.9167C48.75 36.2261 48.6271 36.5228 48.4083 36.7416C48.1895 36.9604 47.8928 37.0833 47.5833 37.0833ZM48.75 46.4167C48.75 46.7261 48.6271 47.0228 48.4083 47.2416C48.1895 47.4604 47.8928 47.5833 47.5833 47.5833H42.3333C42.0239 47.5833 41.7272 47.4604 41.5084 47.2416C41.2896 47.0228 41.1667 46.7261 41.1667 46.4167C41.1667 46.1072 41.2896 45.8105 41.5084 45.5917C41.7272 45.3729 42.0239 45.25 42.3333 45.25H47.5833C47.8928 45.25 48.1895 45.3729 48.4083 45.5917C48.6271 45.8105 48.75 46.1072 48.75 46.4167ZM39.1833 32.5333L35.6833 37.2C35.5832 37.3344 35.4553 37.4456 35.3084 37.5262C35.1614 37.6067 34.9988 37.6546 34.8317 37.6667C34.6646 37.6789 34.4968 37.655 34.3398 37.5967C34.1828 37.5383 34.0402 37.4468 33.9217 37.3283L32.1717 35.5783C32.0629 35.4696 31.9766 35.3404 31.9177 35.1983C31.8589 35.0562 31.8286 34.9038 31.8286 34.75C31.8286 34.5962 31.8589 34.4438 31.9177 34.3017C31.9766 34.1596 32.0629 34.0304 32.1717 33.9217C32.2804 33.8129 32.4096 33.7266 32.5517 33.6677C32.6938 33.6089 32.8462 33.5786 33 33.5786C33.1538 33.5786 33.3062 33.6089 33.4483 33.6677C33.5904 33.7266 33.7196 33.8129 33.8283 33.9217L34.6217 34.7267L37.3167 31.1333C37.5023 30.8858 37.7787 30.7222 38.085 30.6784C38.3913 30.6346 38.7025 30.7143 38.95 30.9C39.1975 31.0857 39.3612 31.362 39.4049 31.6683C39.4487 31.9747 39.369 32.2858 39.1833 32.5333ZM39.1833 44.2L35.6833 48.8667C35.5833 49.0012 35.4555 49.1125 35.3086 49.1932C35.1616 49.2739 34.9991 49.3219 34.8319 49.3341C34.6647 49.3463 34.4969 49.3223 34.3398 49.2638C34.1827 49.2053 34.0401 49.1136 33.9217 48.995L32.1717 47.245C31.952 47.0253 31.8286 46.7274 31.8286 46.4167C31.8286 46.106 31.952 45.808 32.1717 45.5883C32.3914 45.3686 32.6893 45.2452 33 45.2452C33.3107 45.2452 33.6086 45.3686 33.8283 45.5883L34.6217 46.3933L37.3167 42.8C37.5023 42.5525 37.7787 42.3888 38.085 42.3451C38.3913 42.3013 38.7025 42.381 38.95 42.5667C39.1975 42.7523 39.3612 43.0287 39.4049 43.335C39.4487 43.6413 39.369 43.9525 39.1833 44.2Z" fill="black" style="fill:black;fill-opacity:1;"/>
</g>
<defs>
<clipPath id="clip0_45_184">
<rect width="28" height="28" fill="white" style="fill:white;fill-opacity:1;" transform="translate(26 26)"/>
</clipPath>
</defs>
</svg>
