<svg width="80" height="80" viewBox="0 0 80 80" fill="none" xmlns="http://www.w3.org/2000/svg">
<rect width="80" height="80" rx="40" fill="white" style="fill:white;fill-opacity:1;"/>
<path d="M40 26C47.7322 26 54 32.2678 54 40C54 47.7322 47.7322 54 40 54C32.2678 54 26 47.7322 26 40C26 32.2678 32.2678 26 40 26ZM40 45.6C39.6287 45.6 39.2726 45.7475 39.0101 46.01C38.7475 46.2726 38.6 46.6287 38.6 47C38.6 47.3713 38.7475 47.7274 39.0101 47.99C39.2726 48.2525 39.6287 48.4 40 48.4C40.3713 48.4 40.7274 48.2525 40.9899 47.99C41.2525 47.7274 41.4 47.3713 41.4 47C41.4 46.6287 41.2525 46.2726 40.9899 46.01C40.7274 45.7475 40.3713 45.6 40 45.6ZM40 32.3C38.654 32.3 37.3632 32.8347 36.4114 33.7864C35.4597 34.7382 34.925 36.029 34.925 37.375C34.925 37.7463 35.0725 38.1024 35.3351 38.3649C35.5976 38.6275 35.9537 38.775 36.325 38.775C36.6963 38.775 37.0524 38.6275 37.3149 38.3649C37.5775 38.1024 37.725 37.7463 37.725 37.375C37.7255 36.9621 37.8383 36.557 38.0515 36.2033C38.2646 35.8496 38.57 35.5606 38.9349 35.3673C39.2998 35.174 39.7104 35.0836 40.1228 35.1059C40.5351 35.1282 40.9336 35.2622 41.2756 35.4938C41.6175 35.7253 41.89 36.0456 42.0637 36.4202C42.2375 36.7948 42.3061 37.2096 42.262 37.6202C42.218 38.0308 42.063 38.4216 41.8137 38.7509C41.5644 39.0801 41.2303 39.3353 40.847 39.489C39.9006 39.867 38.6 40.8358 38.6 42.45V42.8C38.6 43.1713 38.7475 43.5274 39.0101 43.7899C39.2726 44.0525 39.6287 44.2 40 44.2C40.3713 44.2 40.7274 44.0525 40.9899 43.7899C41.2525 43.5274 41.4 43.1713 41.4 42.8C41.4 42.4584 41.47 42.2876 41.7654 42.142L41.8872 42.086C42.9803 41.6463 43.8865 40.8399 44.4502 39.8053C45.014 38.7706 45.2003 37.5721 44.9772 36.4151C44.7541 35.2582 44.1354 34.2149 43.2273 33.4641C42.3193 32.7133 41.1783 32.3017 40 32.3Z" fill="black" style="fill:black;fill-opacity:1;"/>
</svg>
