<svg width="80" height="80" viewBox="0 0 80 80" fill="none" xmlns="http://www.w3.org/2000/svg">
<rect width="80" height="80" rx="40" fill="white" style="fill:white;fill-opacity:1;"/>
<path d="M36.1963 38.9874C36.1963 38.4696 36.6131 38.0479 37.1309 38.0418H41.8716C42.3894 38.0479 42.8037 38.4696 42.8037 38.9874V39.3018C42.8037 39.6508 43.0872 39.9331 43.4349 39.9331H53.37C53.4528 39.9333 53.5349 39.917 53.6115 39.8854C53.6881 39.8537 53.7577 39.8072 53.8163 39.7485C53.8748 39.6898 53.9212 39.6202 53.9527 39.5435C53.9843 39.4669 54.0003 39.3847 54 39.3018V34.5747C54 33.8781 53.4353 33.3134 52.7387 33.3134H45.8046C45.8046 28.4606 40.5523 25.4276 36.348 27.854C35.3895 28.4071 34.5936 29.2029 34.0404 30.1612C33.4872 31.1196 33.1961 32.2068 33.1966 33.3134H26.2625C25.5659 33.3134 25.0012 33.8781 25.0012 34.5747V39.3018C25.0012 39.6508 25.2836 39.9331 25.6313 39.9331H35.5675C35.6505 39.9334 35.7328 39.9173 35.8095 39.8857C35.8862 39.8541 35.9559 39.8076 36.0146 39.7489C36.0733 39.6903 36.1198 39.6205 36.1514 39.5438C36.183 39.4671 36.1991 39.3848 36.1988 39.3018L36.1963 38.9874ZM39.5006 30.1608C40.4035 30.1487 41.281 30.4598 41.9747 31.0379C42.6683 31.6161 43.1325 32.4231 43.2833 33.3134H35.718C35.8688 32.4231 36.3329 31.6161 37.0266 31.0379C37.7202 30.4598 38.5977 30.1487 39.5006 30.1608ZM42.8049 42.9341C42.8051 43.4238 42.6965 43.9074 42.4869 44.35C42.2774 44.7926 41.972 45.183 41.593 45.4931C41.214 45.8032 40.7708 46.0252 40.2955 46.143C39.8202 46.2608 39.3246 46.2715 38.8447 46.1743C38.0799 46.0034 37.3975 45.5739 36.9127 44.9582C36.4279 44.3425 36.1706 43.5783 36.184 42.7948V42.4545C36.1842 42.3718 36.168 42.2899 36.1365 42.2135C36.105 42.137 36.0587 42.0676 36.0003 42.009C35.9419 41.9505 35.8725 41.9041 35.7961 41.8724C35.7197 41.8407 35.6379 41.8244 35.5552 41.8244H25.63C25.5474 41.8243 25.4655 41.8404 25.389 41.8719C25.3126 41.9035 25.2431 41.9498 25.1846 42.0082C25.1261 42.0666 25.0797 42.1359 25.048 42.2123C25.0163 42.2887 25 42.3706 25 42.4532V50.9642C25 51.6608 25.5647 52.2255 26.2613 52.2255H52.7375C53.4341 52.2255 53.9988 51.6608 53.9988 50.9642V42.4545C53.9989 42.3717 53.9827 42.2897 53.9511 42.2132C53.9195 42.1367 53.8731 42.0671 53.8146 42.0086C53.7561 41.9501 53.6865 41.9037 53.61 41.8721C53.5335 41.8405 53.4515 41.8243 53.3687 41.8244H43.4966C43.4091 41.8172 43.321 41.8279 43.2378 41.8561C43.1546 41.8843 43.0781 41.9292 43.013 41.9882C42.948 42.0472 42.8957 42.1189 42.8595 42.1989C42.8232 42.2788 42.8038 42.3654 42.8024 42.4532L42.8049 42.9341Z" fill="black" style="fill:black;fill-opacity:1;"/>
</svg>
