<svg width="40" height="40" viewBox="0 0 40 40" fill="none" xmlns="http://www.w3.org/2000/svg">
<path d="M20 40C14.6957 40 9.60859 37.8929 5.85786 34.1421C2.10714 30.3914 0 25.3043 0 20C0 14.6957 2.10714 9.60859 5.85786 5.85786C9.60859 2.10714 14.6957 0 20 0C25.3043 0 30.3914 2.10714 34.1421 5.85786C37.8929 9.60859 40 14.6957 40 20C40 25.3043 37.8929 30.3914 34.1421 34.1421C30.3914 37.8929 25.3043 40 20 40ZM35.5 24C36.1774 21.3764 36.1774 18.6236 35.5 16H27.86C28.0441 18.6635 28.0441 21.3365 27.86 24H35.5ZM33.86 28H27.42C27.0858 30.4109 26.4474 32.7697 25.52 35.02C29.0334 33.7239 31.9835 31.2408 33.86 28ZM16.16 24H23.84C24.0572 21.3378 24.0572 18.6622 23.84 16H16.16C15.9428 18.6622 15.9428 21.3378 16.16 24ZM16.66 28C17.48 32.8 18.92 36 20 36C21.08 36 22.52 32.8 23.34 28H16.66ZM4.5 24H12.14C11.9559 21.3365 11.9559 18.6635 12.14 16H4.5C3.82258 18.6236 3.82258 21.3764 4.5 24ZM6.14 28C8.01651 31.2408 10.9666 33.7239 14.48 35.02C13.64 33.1 13 30.7 12.58 28H6.14ZM33.86 12C31.9835 8.75921 29.0334 6.27607 25.52 4.98C26.36 6.9 27 9.3 27.42 12H33.86ZM16.66 12H23.34C22.52 7.2 21.08 4 20 4C18.92 4 17.48 7.2 16.66 12ZM6.14 12H12.58C12.98 9.3 13.64 6.9 14.48 4.98C10.9666 6.27607 8.01651 8.75921 6.14 12Z" fill="black" style="fill:black;fill-opacity:1;"/>
</svg>
